<svg width="44" height="44" viewBox="0 0 44 44" fill="none" xmlns="http://www.w3.org/2000/svg" class="css-13mt9qw">
<rect width="44" height="44" rx="10" fill="none"></rect><path d="M22 12.5C22.5 12.5 22.5864 13.0004 22.5864 13.0004C24.5508 19.8339 24.1662 19.4491 31 21.4137C31 21.4137 31.5 21.4999 31.5 22C31.5 22.5 31 22.5862 31 22.5862C24.166 24.5508 24.5509 24.166 22.5862 31C22.5862 31 22.5 31.5 22 31.5C21.5 31.5 21.4138 31 21.4138 31C19.4491 24.166 19.834 24.5508 13 22.5862C13 22.5862 12.5 22.5 12.5 22C12.5 21.4999 13 21.4137 13 21.4137C19.8338 19.4491 19.4492 19.8339 21.4136 13.0004C21.4136 13.0004 21.5 12.5 22 12.5Z" fill="#108888"></path>
</svg>